{
  "accessors": [
    {
      "bufferView": 2,
      "componentType": 5126,
      "count": 8600,
      "max": [
        3.286259889602661,
        3.1547698974609375,
        4.817111015319824
      ],
      "min": [
        -3.2396910190582275,
        -3.4910058975219727,
        -4.2028679847717285
      ],
      "type": "VEC3"
    },
    {
      "bufferView": 2,
      "byteOffset": 103200,
      "componentType": 5126,
      "count": 8600,
      "max": [
        0.9999143481254578,
        0.99940025806427,
        0.9999858140945435
      ],
      "min": [
        -0.9999299049377441,
        -0.9999228119850159,
        -0.999645471572876
      ],
      "type": "VEC3"
    },
    {
      "bufferView": 3,
      "componentType": 5126,
      "count": 8600,
      "max": [
        0.9988398551940918,
        0.9985684156417847,
        0.9998651742935181,
        1.0
      ],
      "min": [
        -0.9994903802871704,
        -0.9999945163726807,
        -0.9983469247817993,
        -1.0
      ],
      "type": "VEC4"
    },
    {
      "bufferView": 1,
      "componentType": 5126,
      "count": 8600,
      "max": [
        0.9980469942092896,
        0.9980469942092896
      ],
      "min": [
        0.0019529999699443579,
        0.006616999860852957
      ],
      "type": "VEC2"
    },
    {
      "bufferView": 0,
      "componentType": 5125,
      "count": 45675,
      "type": "SCALAR"
    },
    {
      "bufferView": 2,
      "byteOffset": 206400,
      "componentType": 5126,
      "count": 3331,
      "max": [
        0.7513620257377625,
        0.5237619876861572,
        8.396263122558594
      ],
      "min": [
        -0.603069007396698,
        -0.8306699991226196,
        -2.3168909549713135
      ],
      "type": "VEC3"
    },
    {
      "bufferView": 2,
      "byteOffset": 246372,
      "componentType": 5126,
      "count": 3331,
      "max": [
        1.0,
        1.0,
        1.0
      ],
      "min": [
        -1.0,
        -1.0,
        -1.0
      ],
      "type": "VEC3"
    },
    {
      "bufferView": 1,
      "byteOffset": 68800,
      "componentType": 5126,
      "count": 3331,
      "max": [
        0.9924799799919128,
        0.9980000257492065
      ],
      "min": [
        0.0020000000949949026,
        0.0020000000949949026
      ],
      "type": "VEC2"
    },
    {
      "bufferView": 0,
      "byteOffset": 182700,
      "componentType": 5125,
      "count": 15276,
      "type": "SCALAR"
    },
    {
      "bufferView": 2,
      "byteOffset": 286344,
      "componentType": 5126,
      "count": 9047,
      "max": [
        5.781239032745361,
        3.721395969390869,
        8.344003677368164
      ],
      "min": [
        -5.58313512802124,
        -4.296535015106201,
        -8.752366065979004
      ],
      "type": "VEC3"
    },
    {
      "bufferView": 2,
      "byteOffset": 394908,
      "componentType": 5126,
      "count": 9047,
      "max": [
        1.0,
        1.0,
        1.0
      ],
      "min": [
        -1.0,
        -1.0,
        -1.0
      ],
      "type": "VEC3"
    },
    {
      "bufferView": 3,
      "byteOffset": 137600,
      "componentType": 5126,
      "count": 9047,
      "max": [
        1.0,
        1.0,
        1.0,
        1.0
      ],
      "min": [
        -1.0,
        -1.0,
        -1.0,
        -1.0
      ],
      "type": "VEC4"
    },
    {
      "bufferView": 1,
      "byteOffset": 95448,
      "componentType": 5126,
      "count": 9047,
      "max": [
        0.996953010559082,
        0.9990000128746033
      ],
      "min": [
        0.0010000000474974513,
        0.0024139999877661467
      ],
      "type": "VEC2"
    },
    {
      "bufferView": 0,
      "byteOffset": 243804,
      "componentType": 5125,
      "count": 36027,
      "type": "SCALAR"
    }
  ],
  "asset": {
    "extras": {
      "author": "Francesco Coldesina (https://sketchfab.com/topfrank2013)",
      "license": "CC-BY-4.0 (http://creativecommons.org/licenses/by/4.0/)",
      "source": "https://sketchfab.com/3d-models/chinese-bell-optimized-d5e1a97c065645d286690d52f6493e03",
      "title": "Chinese Bell Optimized"
    },
    "generator": "Sketchfab-12.65.0",
    "version": "2.0"
  },
  "bufferViews": [
    {
      "buffer": 0,
      "byteLength": 387912,
      "name": "floatBufferViews",
      "target": 34963
    },
    {
      "buffer": 0,
      "byteLength": 167824,
      "byteOffset": 387912,
      "byteStride": 8,
      "name": "floatBufferViews",
      "target": 34962
    },
    {
      "buffer": 0,
      "byteLength": 503472,
      "byteOffset": 555736,
      "byteStride": 12,
      "name": "floatBufferViews",
      "target": 34962
    },
    {
      "buffer": 0,
      "byteLength": 282352,
      "byteOffset": 1059208,
      "byteStride": 16,
      "name": "floatBufferViews",
      "target": 34962
    }
  ],
  "buffers": [
    {
      "byteLength": 1341560,
      "uri": "scene.bin"
    }
  ],
  "extensionsRequired": [
    "KHR_materials_pbrSpecularGlossiness"
  ],
  "extensionsUsed": [
    "KHR_materials_pbrSpecularGlossiness"
  ],
  "images": [
    {
      "uri": "textures/Campana_LR01_diffuse.jpeg"
    },
    {
      "uri": "textures/Campana_LR01_specularGlossiness.png"
    },
    {
      "uri": "textures/Campana_LR01_normal.png"
    },
    {
      "uri": "textures/Chain01_diffuse.jpeg"
    },
    {
      "uri": "textures/Telaio_Baked01_diffuse.jpeg"
    },
    {
      "uri": "textures/Telaio_Baked01_specularGlossiness.png"
    },
    {
      "uri": "textures/Telaio_Baked01_normal.png"
    }
  ],
  "materials": [
    {
      "doubleSided": true,
      "emissiveTexture": {
        "index": 0
      },
      "extensions": {
        "KHR_materials_pbrSpecularGlossiness": {
          "diffuseFactor": [
            1.0,
            1.0,
            1.0,
            1.0
          ],
          "diffuseTexture": {
            "index": 0
          },
          "glossinessFactor": 1.0,
          "specularFactor": [
            1.0,
            1.0,
            1.0
          ],
          "specularGlossinessTexture": {
            "index": 1
          }
        }
      },
      "name": "Campana_LR01",
      "normalTexture": {
        "index": 2
      }
    },
    {
      "doubleSided": true,
      "emissiveTexture": {
        "index": 3
      },
      "extensions": {
        "KHR_materials_pbrSpecularGlossiness": {
          "diffuseFactor": [
            1.0,
            1.0,
            1.0,
            1.0
          ],
          "diffuseTexture": {
            "index": 3
          },
          "glossinessFactor": 0.959032012195122,
          "specularFactor": [
            0.03830030487804878,
            0.03830030487804878,
            0.03830030487804878
          ]
        }
      },
      "name": "Chain01"
    },
    {
      "doubleSided": true,
      "emissiveTexture": {
        "index": 4
      },
      "extensions": {
        "KHR_materials_pbrSpecularGlossiness": {
          "diffuseFactor": [
            1.0,
            1.0,
            1.0,
            1.0
          ],
          "diffuseTexture": {
            "index": 4
          },
          "glossinessFactor": 1.0,
          "specularFactor": [
            1.0,
            1.0,
            1.0
          ],
          "specularGlossinessTexture": {
            "index": 5
          }
        }
      },
      "name": "Telaio_Baked01",
      "normalTexture": {
        "index": 6
      }
    }
  ],
  "meshes": [
    {
      "name": "Object_0",
      "primitives": [
        {
          "attributes": {
            "NORMAL": 1,
            "POSITION": 0,
            "TANGENT": 2,
            "TEXCOORD_0": 3
          },
          "indices": 4,
          "material": 0,
          "mode": 4
        }
      ]
    },
    {
      "name": "Object_1",
      "primitives": [
        {
          "attributes": {
            "NORMAL": 6,
            "POSITION": 5,
            "TEXCOORD_0": 7
          },
          "indices": 8,
          "material": 1,
          "mode": 4
        }
      ]
    },
    {
      "name": "Object_2",
      "primitives": [
        {
          "attributes": {
            "NORMAL": 10,
            "POSITION": 9,
            "TANGENT": 11,
            "TEXCOORD_0": 12
          },
          "indices": 13,
          "material": 2,
          "mode": 4
        }
      ]
    }
  ],
  "nodes": [
    {
      "children": [
        1
      ],
      "matrix": [
        1.0,
        0.0,
        0.0,
        0.0,
        0.0,
        2.220446049250313e-16,
        -1.0,
        0.0,
        0.0,
        1.0,
        2.220446049250313e-16,
        0.0,
        0.0,
        0.0,
        0.0,
        1.0
      ],
      "name": "Sketchfab_model"
    },
    {
      "children": [
        2,
        3,
        4
      ],
      "name": "Campana Tavolo.obj.cleaner.materialmerger.gles"
    },
    {
      "mesh": 0,
      "name": "Object_2"
    },
    {
      "mesh": 1,
      "name": "Object_3"
    },
    {
      "mesh": 2,
      "name": "Object_4"
    }
  ],
  "samplers": [
    {
      "magFilter": 9729,
      "minFilter": 9987,
      "wrapS": 10497,
      "wrapT": 10497
    }
  ],
  "scene": 0,
  "scenes": [
    {
      "name": "Sketchfab_Scene",
      "nodes": [
        0
      ]
    }
  ],
  "textures": [
    {
      "sampler": 0,
      "source": 0
    },
    {
      "sampler": 0,
      "source": 1
    },
    {
      "sampler": 0,
      "source": 2
    },
    {
      "sampler": 0,
      "source": 3
    },
    {
      "sampler": 0,
      "source": 4
    },
    {
      "sampler": 0,
      "source": 5
    },
    {
      "sampler": 0,
      "source": 6
    }
  ]
}
